<?xml version="1.0" standalone="yes"?>

<svg version="1.1" viewBox="0.0 0.0 498.23884514435696 475.1994750656168" fill="none" stroke="none" stroke-linecap="square" stroke-miterlimit="10" xmlns="http://www.w3.org/2000/svg" xmlns:xlink="http://www.w3.org/1999/xlink"><clipPath id="p.0"><path d="m0 0l498.23883 0l0 475.19946l-498.23883 0l0 -475.19946z" clip-rule="nonzero"></path></clipPath><g clip-path="url(#p.0)"><path fill="#000000" fill-opacity="0.0" d="m0 0l498.23883 0l0 475.19946l-498.23883 0z" fill-rule="nonzero"></path><path fill="#3d85c6" d="m2.883202 81.601295l0 0c0 -43.07907 34.92249 -78.00156 78.001564 -78.00156l336.46933 0l0 0c20.687286 0 40.527283 8.2179985 55.155426 22.846128c14.628113 14.628128 22.84613 34.468132 22.84613 55.15543l0 311.9969c0 43.07907 -34.922485 78.00156 -78.00156 78.00156l-336.46933 0c-43.079075 0 -78.001564 -34.922485 -78.001564 -78.00156z" fill-rule="nonzero"></path><path stroke="#000000" stroke-width="8.0" stroke-linejoin="round" stroke-linecap="butt" d="m2.883202 81.601295l0 0c0 -43.07907 34.92249 -78.00156 78.001564 -78.00156l336.46933 0l0 0c20.687286 0 40.527283 8.2179985 55.155426 22.846128c14.628113 14.628128 22.84613 34.468132 22.84613 55.15543l0 311.9969c0 43.07907 -34.922485 78.00156 -78.00156 78.00156l-336.46933 0c-43.079075 0 -78.001564 -34.922485 -78.001564 -78.00156z" fill-rule="nonzero"></path><path fill="#000000" fill-opacity="0.0" d="m241.92914 -57.595802l161.98425 0l0 96.755905l-161.98425 0z" fill-rule="nonzero"></path><path fill="#ffffff" d="m257.17914 187.01358l40.59375 0l0 -20.8125q0 -34.875 7.421875 -52.046883q7.421875 -17.1875 27.328125 -27.984375q19.90625 -10.796875 50.359375 -10.796875q31.21875 0 61.15625 9.359375l-9.890625 51.015633q-17.4375 -4.171875 -33.578125 -4.171875q-15.875 0 -22.765625 7.421875q-6.890625 7.421875 -6.890625 28.5l0 19.515625l54.640625 0l0 57.515625l-54.640625 0l0 218.875l-73.140625 0l0 -218.875l-40.59375 0l0 -57.515625z" fill-rule="nonzero"></path></g></svg>

